# xmcd
#
# Track frame offsets: 
#        150
#        36747
#        72100
#        97710
#        133752
#        171480
#        206135
#        238022
#        258460
#        279057
#        295762
#
# Disc length: 4156 seconds
#
# Revision: 1
# Processed by: cddbd v1.5.2PL0 Copyright (c) Steve Scherf et al.
# Submitted via: ExactAudioCopy v0.99pb4
#
DISCID=a5103a0b
DTITLE=Musique - Keep on Jumpin'
DYEAR=1992
DGENRE=Disco
TTITLE0=In the Bush
TTITLE1=Summer Love
TTITLE2=Keep on Jumpin'
TTITLE3=Summer Love Theme
TTITLE4=Glide
TTITLE5=In the Bush [Remix]
TTITLE6=Keep on Jumpin' [Remix]
TTITLE7=Summer Love [Radio Edit]
TTITLE8=Summer Love Theme [Radio Edit]
TTITLE9=Keep on Jumpin' [Radio Edit]
TTITLE10=In the Bush [Radio Edit]
EXTD=
EXTT0=
EXTT1=
EXTT2=
EXTT3=
EXTT4=
EXTT5=
EXTT6=
EXTT7=
EXTT8=
EXTT9=
EXTT10=
PLAYORDER=
